<?xml version="1.0" encoding="utf-8"?>
<svg version="1.1" xmlns:xlink="http://www.w3.org/1999/xlink" width="231px" height="122px" xmlns="http://www.w3.org/2000/svg">
  <g transform="matrix(1 0 0 1 -271 -402 )">
    <path d="M 271 402  L 502 402  L 502 524  L 271 524  L 271 402  " fill-rule="nonzero" fill="#cccccc" stroke="none" />
    <path d="M 280 411  L 493 411  L 493 515  L 280 515  L 280 411  " fill-rule="nonzero" fill="#ffffff" stroke="none" />
    <path d="M 400.27 438.6  C 395.146 438.6  391.12 434.574  391.12 429.45000000000005  C 391.12 424.326  395.146 420.3  400.27 420.3  C 405.394 420.3  409.42 424.326  409.42 429.45000000000005  C 409.42 434.574  405.394 438.6  400.27 438.6  " fill-rule="nonzero" fill="#cccccc" stroke="none" />
    <path d="M 283 512  L 283 458.1  L 334.75 433.6  L 407.2 480.94545454545454  L 448.6 448.3  L 490 480.94545454545454  L 490 512  L 283 512  " fill-rule="nonzero" fill="#169bd5" stroke="none" />
  </g>
</svg>