<?xml version="1.0" encoding="utf-8"?>
<svg version="1.1" xmlns:xlink="http://www.w3.org/1999/xlink" width="231px" height="108px" xmlns="http://www.w3.org/2000/svg">
  <g transform="matrix(1 0 0 1 -271 -594 )">
    <path d="M 271 594  L 502 594  L 502 702  L 271 702  L 271 594  " fill-rule="nonzero" fill="#cccccc" stroke="none" />
    <path d="M 279 602  L 494 602  L 494 694  L 279 694  L 279 602  " fill-rule="nonzero" fill="#ffffff" stroke="none" />
    <path d="M 399.22 626.4000000000001  C 394.684 626.4000000000001  391.12 622.8360000000001  391.12 618.3000000000001  C 391.12 613.764  394.684 610.2  399.22 610.2  C 403.75600000000003 610.2  407.32 613.764  407.32 618.3000000000001  C 407.32 622.8360000000001  403.75600000000003 626.4000000000001  399.22 626.4000000000001  " fill-rule="nonzero" fill="#cccccc" stroke="none" />
    <path d="M 282 692  L 282 644.15  L 334.5 622.4  L 408 667.5948051948052  L 450 635.45  L 492 667.5948051948052  L 492 692  L 282 692  " fill-rule="nonzero" fill="#169bd5" stroke="none" />
  </g>
</svg>