<?xml version="1.0" encoding="utf-8"?>
<svg version="1.1" xmlns:xlink="http://www.w3.org/1999/xlink" width="211px" height="48px" xmlns="http://www.w3.org/2000/svg">
  <defs>
    <filter x="754px" y="347px" width="211px" height="48px" filterUnits="userSpaceOnUse" id="filter298">
      <feOffset dx="5" dy="5" in="SourceAlpha" result="shadowOffsetInner" />
      <feGaussianBlur stdDeviation="2.5" in="shadowOffsetInner" result="shadowGaussian" />
      <feComposite in2="shadowGaussian" operator="atop" in="SourceAlpha" result="shadowComposite" />
      <feColorMatrix type="matrix" values="0 0 0 0 0.2  0 0 0 0 0.2  0 0 0 0 0.2  0 0 0 0.6196078431372549 0  " in="shadowComposite" />
    </filter>
    <g id="widget299">
      <path d="M 754.5 352  A 4.5 4.5 0 0 1 759 347.5 L 950 347.5  A 4.5 4.5 0 0 1 954.5 352 L 954.5 380  A 4.5 4.5 0 0 1 950 384.5 L 759 384.5  A 4.5 4.5 0 0 1 754.5 380 L 754.5 352  Z " fill-rule="nonzero" fill="#797979" stroke="none" fill-opacity="0.6588235294117647" />
      <path d="M 754.5 352  A 4.5 4.5 0 0 1 759 347.5 L 950 347.5  A 4.5 4.5 0 0 1 954.5 352 L 954.5 380  A 4.5 4.5 0 0 1 950 384.5 L 759 384.5  A 4.5 4.5 0 0 1 754.5 380 L 754.5 352  Z " stroke-width="1" stroke="#000000" fill="none" />
    </g>
  </defs>
  <g transform="matrix(1 0 0 1 -754 -347 )">
    <use xlink:href="#widget299" filter="url(#filter298)" />
    <use xlink:href="#widget299" />
  </g>
</svg>