<?xml version="1.0" encoding="utf-8"?>
<svg version="1.1" xmlns:xlink="http://www.w3.org/1999/xlink" width="138px" height="36px" xmlns="http://www.w3.org/2000/svg">
  <defs>
    <filter x="640px" y="331px" width="138px" height="36px" filterUnits="userSpaceOnUse" id="filter302">
      <feOffset dx="5" dy="5" in="SourceAlpha" result="shadowOffsetInner" />
      <feGaussianBlur stdDeviation="2.5" in="shadowOffsetInner" result="shadowGaussian" />
      <feComposite in2="shadowGaussian" operator="atop" in="SourceAlpha" result="shadowComposite" />
      <feColorMatrix type="matrix" values="0 0 0 0 0  0 0 0 0 0  0 0 0 0 0  0 0 0 0.6196078431372549 0  " in="shadowComposite" />
    </filter>
    <g id="widget303">
      <path d="M 640.5 336  A 4.5 4.5 0 0 1 645 331.5 L 763 331.5  A 4.5 4.5 0 0 1 767.5 336 L 767.5 352  A 4.5 4.5 0 0 1 763 356.5 L 645 356.5  A 4.5 4.5 0 0 1 640.5 352 L 640.5 336  Z " fill-rule="nonzero" fill="#555555" stroke="none" fill-opacity="0.6588235294117647" />
      <path d="M 640.5 336  A 4.5 4.5 0 0 1 645 331.5 L 763 331.5  A 4.5 4.5 0 0 1 767.5 336 L 767.5 352  A 4.5 4.5 0 0 1 763 356.5 L 645 356.5  A 4.5 4.5 0 0 1 640.5 352 L 640.5 336  Z " stroke-width="1" stroke="#000000" fill="none" />
    </g>
  </defs>
  <g transform="matrix(1 0 0 1 -640 -331 )">
    <use xlink:href="#widget303" filter="url(#filter302)" />
    <use xlink:href="#widget303" />
  </g>
</svg>