<?xml version="1.0" encoding="utf-8"?>
<svg version="1.1" xmlns:xlink="http://www.w3.org/1999/xlink" width="13px" height="14px" xmlns="http://www.w3.org/2000/svg">
  <g transform="matrix(1 0 0 1 -784 -282 )">
    <path d="M 1 5  L 1 13  L 12 13  L 12 5  L 1 5  Z M 3.9296875 3.6796874999999996  C 3.9765625 3.632812499999999  4 3.5729166666666656  4 3.5  L 4 1.2500000000000002  C 4 1.1770833333333315  3.9765625 1.1171874999999993  3.9296875 1.0703125000000007  C 3.8828125000000004 1.0234375000000004  3.822916666666667 0.9999999999999996  3.7499999999999996 0.9999999999999996  L 3.25 0.9999999999999996  C 3.177083333333334 0.9999999999999996  3.1171875000000004 1.0234375000000004  3.0703125 1.0703125000000007  C 3.0234375 1.1171874999999993  3 1.1770833333333315  3 1.2500000000000002  L 3 3.5  C 3 3.5729166666666656  3.0234375 3.632812499999999  3.0703125 3.6796874999999996  C 3.1171875000000004 3.7265625  3.177083333333334 3.750000000000001  3.25 3.750000000000001  L 3.7499999999999996 3.750000000000001  C 3.822916666666667 3.750000000000001  3.8828125000000004 3.7265625  3.9296875 3.6796874999999996  Z M 9.9296875 3.6796874999999996  C 9.9765625 3.632812499999999  10 3.5729166666666656  10 3.5  L 10 1.2500000000000002  C 10 1.1770833333333315  9.9765625 1.1171874999999993  9.9296875 1.0703125000000007  C 9.8828125 1.0234375000000004  9.822916666666668 0.9999999999999996  9.75 0.9999999999999996  L 9.25 0.9999999999999996  C 9.177083333333334 0.9999999999999996  9.1171875 1.0234375000000004  9.0703125 1.0703125000000007  C 9.0234375 1.1171874999999993  9 1.1770833333333315  9 1.2500000000000002  L 9 3.5  C 9 3.5729166666666656  9.0234375 3.632812499999999  9.0703125 3.6796874999999996  C 9.1171875 3.7265625  9.177083333333334 3.750000000000001  9.25 3.750000000000001  L 9.75 3.750000000000001  C 9.822916666666668 3.750000000000001  9.8828125 3.7265625  9.9296875 3.6796874999999996  Z M 12.703125 2.296875  C 12.901041666666668 2.494791666666667  13 2.729166666666666  13 3  L 13 13  C 13 13.270833333333334  12.901041666666668 13.505208333333334  12.703125 13.703125  C 12.505208333333334 13.901041666666666  12.270833333333334 14  12 14  L 1 14  C 0.7291666666666667 14  0.49479166666666674 13.901041666666666  0.296875 13.703125  C 0.09895833333333333 13.505208333333334  0 13.270833333333334  0 13  L 0 3  C 0 2.729166666666666  0.09895833333333333 2.494791666666667  0.296875 2.296875  C 0.49479166666666674 2.0989583333333317  0.7291666666666667 2.000000000000001  1 2.000000000000001  L 2 2.000000000000001  L 2 1.2500000000000002  C 2 0.9062500000000007  2.1223958333333335 0.6119791666666659  2.3671875 0.36718750000000044  C 2.611979166666667 0.12239583333333348  2.90625 0  3.25 0  L 3.7499999999999996 0  C 4.09375 0  4.388020833333334 0.12239583333333348  4.6328125 0.36718750000000044  C 4.877604166666667 0.6119791666666659  5 0.9062500000000007  5 1.2500000000000002  L 5 2.000000000000001  L 8 2.000000000000001  L 8 1.2500000000000002  C 8 0.9062500000000007  8.122395833333334 0.6119791666666659  8.3671875 0.36718750000000044  C 8.611979166666668 0.12239583333333348  8.90625 0  9.25 0  L 9.75 0  C 10.09375 0  10.388020833333334 0.12239583333333348  10.6328125 0.36718750000000044  C 10.877604166666668 0.6119791666666659  11 0.9062500000000007  11 1.2500000000000002  L 11 2.000000000000001  L 12 2.000000000000001  C 12.270833333333334 2.000000000000001  12.505208333333334 2.0989583333333317  12.703125 2.296875  Z " fill-rule="nonzero" fill="#000000" stroke="none" transform="matrix(1 0 0 1 784 282 )" />
  </g>
</svg>