<?xml version="1.0" encoding="utf-8"?>
<svg version="1.1" xmlns:xlink="http://www.w3.org/1999/xlink" width="11px" height="12px" xmlns="http://www.w3.org/2000/svg">
  <g transform="matrix(1 0 0 1 -786 -227 )">
    <path d="M 8.522135416666668 5  C 8.522135416666668 5.135416666666666  8.47677951388889 5.252604166666666  8.386067708333332 5.3515625  L 5.363932291666666 8.6484375  C 5.273220486111112 8.747395833333332  5.165798611111112 8.796875  5.041666666666666 8.796875  C 4.917534722222223 8.796875  4.810112847222223 8.747395833333332  4.719401041666666 8.6484375  L 2.613932291666667 6.3515625  C 2.5232204861111116 6.252604166666665  2.477864583333333 6.135416666666665  2.477864583333333 6  C 2.477864583333333 5.864583333333334  2.5232204861111116 5.747395833333334  2.613932291666667 5.6484375  L 3.3444010416666665 4.8515625  C 3.4351128472222228 4.752604166666666  3.5425347222222228 4.703125  3.6666666666666665 4.703125  C 3.7907986111111116 4.703125  3.8982204861111116 4.752604166666666  3.9889322916666665 4.8515625  L 5.041666666666666 6  L 7.011067708333333 3.8515624999999996  C 7.10177951388889 3.752604166666666  7.20920138888889 3.703125  7.333333333333333 3.703125  C 7.457465277777779 3.703125  7.564887152777779 3.752604166666666  7.655598958333333 3.8515624999999996  L 8.386067708333332 4.6484375  C 8.47677951388889 4.747395833333333  8.522135416666668 4.864583333333333  8.522135416666668 5  Z M 8.873046875 8.1328125  C 9.221571180555555 7.481770833333332  9.395833333333332 6.770833333333334  9.395833333333332 6  C 9.395833333333332 5.229166666666666  9.221571180555555 4.518229166666666  8.873046875 3.8671875  C 8.524522569444446 3.216145833333332  8.051866319444446 2.700520833333332  7.455078125 2.3203125  C 6.858289930555555 1.9401041666666665  6.206597222222223 1.7500000000000004  5.5 1.7500000000000004  C 4.793402777777778 1.7500000000000004  4.141710069444445 1.9401041666666665  3.544921875 2.3203125  C 2.948133680555556 2.700520833333332  2.475477430555556 3.216145833333332  2.126953125 3.8671875  C 1.7784288194444446 4.518229166666666  1.6041666666666667 5.229166666666666  1.6041666666666667 6  C 1.6041666666666667 6.770833333333334  1.7784288194444446 7.481770833333332  2.126953125 8.1328125  C 2.475477430555556 8.783854166666664  2.948133680555556 9.299479166666666  3.544921875 9.6796875  C 4.141710069444445 10.059895833333334  4.793402777777778 10.25  5.5 10.25  C 6.206597222222223 10.25  6.858289930555555 10.059895833333334  7.455078125 9.6796875  C 8.051866319444446 9.299479166666666  8.524522569444446 8.783854166666664  8.873046875 8.1328125  Z M 10.262369791666668 2.98828125  C 10.754123263888888 3.907552083333332  11 4.911458333333332  11 6  C 11 7.088541666666667  10.754123263888888 8.092447916666664  10.262369791666668 9.01171875  C 9.770616319444446 9.930989583333334  9.103407118055555 10.658854166666666  8.2607421875 11.1953125  C 7.4180772569444455 11.731770833333334  6.497829861111112 12  5.5 12  C 4.502170138888889 12  3.581922743055556 11.731770833333334  2.7392578125 11.1953125  C 1.8965928819444446 10.658854166666666  1.2293836805555558 9.930989583333334  0.7376302083333334 9.01171875  C 0.24587673611111108 8.092447916666664  0 7.088541666666667  0 6  C 0 4.911458333333332  0.24587673611111108 3.907552083333332  0.7376302083333334 2.98828125  C 1.2293836805555558 2.0690104166666665  1.8965928819444446 1.3411458333333321  2.7392578125 0.8046874999999996  C 3.581922743055556 0.26822916666666563  4.502170138888889 0  5.5 0  C 6.497829861111112 0  7.4180772569444455 0.26822916666666563  8.2607421875 0.8046874999999996  C 9.103407118055555 1.3411458333333321  9.770616319444446 2.0690104166666665  10.262369791666668 2.98828125  Z " fill-rule="nonzero" fill="#000000" stroke="none" transform="matrix(1 0 0 1 786 227 )" />
  </g>
</svg>