<?xml version="1.0" encoding="utf-8"?>
<svg version="1.1" xmlns:xlink="http://www.w3.org/1999/xlink" width="13px" height="11px" xmlns="http://www.w3.org/2000/svg">
  <g transform="matrix(1 0 0 1 -784 -257 )">
    <path d="M 0.9285714285714285 5.5  C 1.736235119047619 6.907738095238095  2.7687872023809526 7.930803571428571  4.026227678571429 8.569196428571429  L 4.592075892857143 7.415178571428571  C 4.171316964285714 7.071428571428571  3.842447916666667 6.63764880952381  3.60546875 6.113839285714286  C 3.368489583333334 5.590029761904762  3.25 5.036210317460316  3.25 4.4523809523809526  C 3.25 3.7921626984126986  3.3975074404761907 3.1783234126984117  3.692522321428571 2.610863095238095  C 2.5850074404761907 3.2492559523809526  1.6636904761904765 4.212301587301587  0.9285714285714285 5.5  Z M 6.746651785714286 2.635416666666667  C 6.8143601190476195 2.559027777777776  6.848214285714286 2.466269841269841  6.848214285714286 2.357142857142857  C 6.848214285714286 2.2480158730158726  6.8143601190476195 2.1552579365079363  6.746651785714286 2.0788690476190474  C 6.678943452380953 2.0024801587301577  6.59672619047619 1.9642857142857146  6.5 1.9642857142857146  C 5.89546130952381 1.9642857142857146  5.376767113095239 2.208457341269841  4.943917410714286 2.696800595238095  C 4.511067708333334 3.1851438492063493  4.294642857142857 3.7703373015873014  4.294642857142857 4.4523809523809526  C 4.294642857142857 4.561507936507936  4.328497023809525 4.654265873015873  4.396205357142857 4.730654761904762  C 4.463913690476191 4.807043650793649  4.5461309523809526 4.845238095238095  4.642857142857143 4.845238095238095  C 4.739583333333334 4.845238095238095  4.821800595238096 4.807043650793649  4.889508928571429 4.730654761904762  C 4.957217261904762 4.654265873015873  4.991071428571429 4.561507936507936  4.991071428571429 4.4523809523809526  C 4.991071428571429 3.98313492063492  5.138578869047619 3.582093253968254  5.43359375 3.2492559523809526  C 5.728608630952381 2.9164186507936494  6.084077380952381 2.7499999999999987  6.5 2.75  C 6.59672619047619 2.7499999999999987  6.678943452380953 2.7118055555555545  6.746651785714286 2.635416666666667  Z M 9.365513392857142 0.5729166666666671  C 9.442894345238095 0.6274801587301577  9.481584821428571 0.7011408730158724  9.481584821428571 0.7938988095238098  C 9.481584821428571 0.8320932539682528  9.479166666666668 0.8566468253968236  9.474330357142858 0.8675595238095244  C 8.96168154761905 1.8988095238095244  8.197544642857142 3.4456845238095246  7.181919642857142 5.508184523809525  C 6.166294642857144 7.570684523809525  5.404575892857144 9.11483134920635  4.896763392857143 10.140625  L 4.541294642857143 10.86904761904762  C 4.4929315476190474 10.956349206349206  4.425223214285714 11  4.338169642857143 11  C 4.280133928571429 11  3.9561011904761907 10.809027777777779  3.366071428571429 10.427083333333332  C 3.2886904761904767 10.372519841269842  3.25 10.296130952380953  3.25 10.197916666666668  C 3.25 10.132440476190476  3.3563988095238098 9.895089285714285  3.569196428571429 9.485863095238095  C 2.877604166666667 9.131200396825397  2.2404203869047623 8.65922619047619  1.6576450892857144 8.069940476190476  C 1.0748697916666667 7.480654761904762  0.570684523809524 6.812251984126984  0.14508928571428573 6.064732142857142  C 0.04836309523809523 5.895585317460316  0 5.707341269841269  0 5.5  C 0 5.292658730158729  0.04836309523809523 5.104414682539682  0.14508928571428573 4.935267857142858  C 0.885044642857143 3.6530257936507935  1.8039434523809526 2.640873015873015  2.9017857142857144 1.8988095238095244  C 3.9996279761904767 1.1567460317460312  5.199032738095239 0.7857142857142854  6.5 0.7857142857142854  C 6.9304315476190474 0.7857142857142854  7.365699404761906 0.8320932539682528  7.805803571428572 0.9248511904761902  L 8.197544642857142 0.1309523809523805  C 8.245907738095237 0.043650793650793496  8.313616071428571 0  8.400669642857142 0  C 8.424851190476192 0  8.468377976190478 0.01636904761904756  8.53125 0.04910714285714268  C 8.594122023809524 0.0818452380952378  8.669084821428571 0.12413194444444309  8.756138392857142 0.1759672619047622  C 8.843191964285714 0.22780257936507886  8.922991071428571 0.27827380952380976  8.995535714285714 0.32738095238095244  C 9.068080357142858 0.3764880952380951  9.144252232142858 0.4269593253968236  9.224051339285714 0.4787946428571427  C 9.303850446428571 0.5306299603174593  9.351004464285714 0.5620039682539675  9.365513392857142 0.5729166666666671  Z M 9.691964285714286 3.7648809523809526  C 9.730654761904763 4.010416666666667  9.75 4.239583333333333  9.75 4.4523809523809526  C 9.75 5.210813492063492  9.558965773809524 5.902405753968253  9.176897321428571 6.527157738095238  C 8.79482886904762 7.151909722222221  8.289434523809524 7.600694444444443  7.660714285714286 7.873511904761905  L 9.691964285714286 3.7648809523809526  Z M 12.854910714285714 4.935267857142858  C 12.951636904761905 5.120783730158729  13 5.309027777777777  13 5.5  C 13 5.690972222222221  12.951636904761905 5.879216269841269  12.854910714285714 6.064732142857142  C 12.666294642857142 6.41393849206349  12.402715773809524 6.80952380952381  12.064174107142858 7.251488095238095  C 11.338727678571429 8.18998015873016  10.498418898809524 8.918402777777779  9.543247767857142 9.436755952380953  C 8.588076636904763 9.955109126984127  7.573660714285714 10.214285714285715  6.5 10.214285714285715  L 7.036830357142858 9.133928571428571  C 8.062127976190478 9.035714285714285  9.011253720238095 8.661954365079364  9.884207589285714 8.01264880952381  C 10.757161458333334 7.363343253968253  11.48623511904762 6.525793650793649  12.071428571428571 5.5  C 11.515252976190478 4.523313492063492  10.833333333333334 3.721230158730159  10.025669642857142 3.09375  L 10.482700892857142 2.177083333333333  C 10.94215029761905 2.526289682539681  11.383463541666668 2.9437003968253954  11.806640625 3.4293154761904754  C 12.229817708333334 3.9149305555555545  12.579241071428571 4.416914682539682  12.854910714285714 4.935267857142858  Z " fill-rule="nonzero" fill="#000000" stroke="none" transform="matrix(1 0 0 1 784 257 )" />
  </g>
</svg>