<?xml version="1.0" encoding="utf-8"?>
<svg version="1.1" xmlns:xlink="http://www.w3.org/1999/xlink" width="13px" height="11px" xmlns="http://www.w3.org/2000/svg">
  <g transform="matrix(1 0 0 1 -784 -257 )">
    <path d="M 9.652064732142858 8.617621527777777  C 10.621744791666668 7.844184027777777  11.428199404761905 6.804976851851849  12.071428571428571 5.5  C 11.336309523809524 3.997685185185185  10.41499255952381 2.874131944444444  9.307477678571429 2.1293402777777772  C 9.60249255952381 2.7913773148148135  9.75 3.507523148148148  9.75 4.277777777777777  C 9.75 5.455439814814813  9.432012648809524 6.462818287037036  8.796037946428571 7.299913194444445  C 8.16006324404762 8.13700810185185  7.394717261904762 8.555555555555555  6.5 8.555555555555555  C 5.605282738095239 8.555555555555555  4.839936755952381 8.13700810185185  4.203962053571429 7.299913194444445  C 3.5679873511904767 6.462818287037036  3.25 5.455439814814813  3.25 4.277777777777777  C 3.25 3.507523148148148  3.3975074404761907 2.7913773148148135  3.692522321428571 2.1293402777777772  C 2.5850074404761907 2.874131944444444  1.6636904761904765 3.997685185185185  0.9285714285714285 5.5  C 1.5718005952380953 6.804976851851849  2.3782552083333335 7.844184027777777  3.347935267857143 8.617621527777777  C 4.3176153273809526 9.391059027777777  5.368303571428571 9.777777777777777  6.5 9.777777777777777  C 7.631696428571428 9.777777777777777  8.68238467261905 9.391059027777777  9.652064732142858 8.617621527777777  Z M 6.746651785714286 2.1579861111111116  C 6.8143601190476195 2.068865740740741  6.848214285714286 1.9606481481481477  6.848214285714286 1.833333333333333  C 6.848214285714286 1.7060185185185182  6.8143601190476195 1.597800925925925  6.746651785714286 1.5086805555555558  C 6.678943452380953 1.419560185185184  6.59672619047619 1.3749999999999987  6.5 1.375  C 5.89546130952381 1.3749999999999987  5.376767113095239 1.6598668981481477  4.943917410714286 2.229600694444444  C 4.511067708333334 2.799334490740741  4.294642857142857 3.482060185185185  4.294642857142857 4.277777777777777  C 4.294642857142857 4.405092592592592  4.328497023809525 4.513310185185185  4.396205357142857 4.602430555555555  C 4.463913690476191 4.691550925925925  4.5461309523809526 4.736111111111112  4.642857142857143 4.736111111111112  C 4.739583333333334 4.736111111111112  4.821800595238096 4.691550925925925  4.889508928571429 4.602430555555555  C 4.957217261904762 4.513310185185185  4.991071428571429 4.405092592592592  4.991071428571429 4.277777777777777  C 4.991071428571429 3.730324074074074  5.138578869047619 3.2624421296296298  5.43359375 2.874131944444444  C 5.728608630952381 2.485821759259259  6.084077380952381 2.291666666666666  6.5 2.291666666666667  C 6.59672619047619 2.291666666666666  6.678943452380953 2.2471064814814805  6.746651785714286 2.1579861111111116  Z M 12.854910714285714 4.841145833333333  C 12.951636904761905 5.0639467592592595  13 5.283564814814813  13 5.5  C 13 5.716435185185184  12.951636904761905 5.9360532407407405  12.854910714285714 6.158854166666666  C 12.177827380952383 7.622974537037036  11.26739211309524 8.795862268518519  10.123604910714286 9.67751736111111  C 8.979817708333334 10.559172453703704  7.771949404761906 11  6.5 11  C 5.228050595238096 11  4.020182291666667 10.557581018518519  2.8763950892857144 9.672743055555555  C 1.7326078869047619 8.787905092592592  0.8221726190476192 7.616608796296296  0.14508928571428573 6.158854166666666  C 0.04836309523809523 5.9360532407407405  0 5.716435185185184  0 5.5  C 0 5.283564814814813  0.04836309523809523 5.0639467592592595  0.14508928571428573 4.841145833333333  C 0.8221726190476192 3.3833912037037033  1.7326078869047619 2.2120949074074066  2.8763950892857144 1.3272569444444442  C 4.020182291666667 0.4424189814814806  5.228050595238096 0  6.5 0  C 7.771949404761906 0  8.979817708333334 0.4424189814814806  10.123604910714286 1.3272569444444442  C 11.26739211309524 2.2120949074074066  12.177827380952383 3.3833912037037033  12.854910714285714 4.841145833333333  Z " fill-rule="nonzero" fill="#000000" stroke="none" transform="matrix(1 0 0 1 784 257 )" />
  </g>
</svg>